# xmcd CD database file
#
# Track frame offsets:
#	183
#	18633
#	32435
#	53258
#	68803
#	87438
#	103910
#	134935
#	149098
#
# Disc length: 3187 seconds
#
# Revision: 3
# Processed by: cddbd v1.5.2PL0 Copyright (c) Steve Scherf et al.
# Submitted via: CDex 1.51
#
DISCID=830c7109
DTITLE=Alphonse Mouzon - Mind Transplant
DYEAR=1975
DGENRE=Jazz
TTITLE0=Mind Transplant
TTITLE1=Snow Bound
TTITLE2=Carbon Dioxide
TTITLE3=Ascorbic Acid
TTITLE4=Happiness Is Loving You
TTITLE5=Some Of The Things People Do
TTITLE6=Golden Rainbows
TTITLE7=Nitroglycerin
TTITLE8=The Real Thing
EXTD=YEAR: 1975
EXTT0=
EXTT1=
EXTT2=
EXTT3=
EXTT4=
EXTT5=
EXTT6=
EXTT7=
EXTT8=
PLAYORDER=
